<!DOCTYPE svg PUBLIC "-//W3C//DTD SVG 1.1//EN" "http://www.w3.org/Graphics/SVG/1.1/DTD/svg11.dtd">
<!-- Uploaded to: SVG Repo, www.svgrepo.com, Transformed by: SVG Repo Mixer Tools -->
<svg width="800px" height="800px" viewBox="0 0 20 20" version="1.1" xmlns="http://www.w3.org/2000/svg" fill="#000000">
<g id="SVGRepo_bgCarrier" stroke-width="0"/>
<g id="SVGRepo_tracerCarrier" stroke-linecap="round" stroke-linejoin="round"/>
<g id="SVGRepo_iconCarrier"> <g id="layer1"> <path d="M 0 2 L 0 18 L 20 18 L 20 2 L 0 2 z M 1 3 L 19 3 L 19 5 L 1 5 L 1 3 z M 1 6 L 19 6 L 19 17 L 1 17 L 1 6 z M 7.6464844 8.1464844 L 4.2929688 11.5 L 7.6464844 14.853516 L 8.3535156 14.146484 L 5.7070312 11.5 L 8.3535156 8.8535156 L 7.6464844 8.1464844 z M 12.353516 8.1464844 L 11.646484 8.8535156 L 14.292969 11.5 L 11.646484 14.146484 L 12.353516 14.853516 L 15.707031 11.5 L 12.353516 8.1464844 z " style="fill:#8849fd; fill-opacity:1; stroke:none; stroke-width:0px;"/> </g> </g>
</svg>